<svg id="Capa_1" enable-background="new 0 0 512 512" height="32" viewBox="0 0 512 512" width="32" xmlns="http://www.w3.org/2000/svg"><g><circle cx="256" cy="256" fill="#86dbfd" r="256"/><path d="m511.415 273.151-196.665-196.666-3.897 15 3.88 3.88-8.108 8.108 12.585 12.585-8.356 8.356 7.882 7.882-3.463 3.463-59.274-59.274-3.897 15 3.878 3.878-8.107 8.107 11.118 11.118-7.765 7.765 7.853 7.853-4.054 4.054-57.775-57.775-3.845 15.051 3.826 3.826-8.108 8.108 12.961 12.961-8.678 8.678 8.294 8.294-8.294 8.294 8.471 8.471-8.471 8.471 8.559 8.559-8.559 8.559 86.177 86.177-173.583 173.581 60.321 60.321c27.911 10.441 58.125 16.164 89.679 16.164 135.62 0 246.589-105.464 255.415-238.849z" fill="#55b8f4"/><path d="m197.25 106.485c-6.82 0-11.636-4.82-9.48-9.487l9.48-20.513 9.48 20.513c2.156 4.668-2.66 9.487-9.48 9.487z" fill="#fcc515"/><path d="m207.25 185.515-10 4.911-10-4.911v-80h20z" fill="#555a65"/><path d="m314.75 106.485c-6.82 0-11.636-4.82-9.48-9.487l9.48-20.513 9.48 20.513c2.156 4.668-2.66 9.487-9.48 9.487z" fill="#fa0"/><path d="m324.75 185.515-10 4.911-10-4.911v-80h20z" fill="#333940"/><path d="m246.52 96.999c-2.157 4.667 2.659 9.487 9.48 9.487l5-15-5-15z" fill="#fcc515"/><path d="m265.48 96.999-9.48-20.514v30c6.82 0 11.636-4.819 9.48-9.486z" fill="#fa0"/><path d="m246 105.515v80l10 4.912 5-42.456-5-42.456z" fill="#555a65"/><path d="m266 105.515h-10v84.912l10-4.912z" fill="#333940"/><path d="m106 310.515v125h150l19.353-62.5-19.353-62.5z" fill="#fb6270"/><path d="m256 310.515h150v125h-150z" fill="#eb2e4b"/><path d="m143.5 210.515v75l112.5 12.5 19.353-42.015-19.353-45.485z" fill="#fb6270"/><path d="m368.5 210.515h-112.5v87.5l112.5-12.5z" fill="#eb2e4b"/><path d="m101 285.515v25c0 20.711 17.349 37.5 38.75 37.5s38.75-16.789 38.75-37.5c0 20.711 17.349 37.5 38.75 37.5s38.75-16.789 38.75-37.5l11.941-12.5-11.941-12.5z" fill="#fff"/><path d="m294.75 348.015c21.401 0 38.75-16.789 38.75-37.5 0 20.711 17.349 37.5 38.75 37.5s38.75-16.789 38.75-37.5v-25h-155v25c0 20.71 17.349 37.5 38.75 37.5z" fill="#e9edf5"/><path d="m138.5 185.515v25c0 20.711 17.536 37.5 39.167 37.5s39.167-16.789 39.167-37.5c0 20.711 17.535 37.5 39.167 37.5l15.824-37.5-15.824-25z" fill="#fff"/><path d="m295.167 210.515c0 20.711 17.536 37.5 39.167 37.5s39.167-16.789 39.167-37.5v-25h-117.501v62.5c21.631 0 39.167-16.79 39.167-37.5z" fill="#e9edf5"/></g></svg>
