<svg id="Capa_1" enable-background="new 0 0 512.003 512.003" height="512" viewBox="0 0 512.003 512.003" width="512" xmlns="http://www.w3.org/2000/svg"><g><path d="m214.291 217.003h-31.93l-30.03-82.5 28.19-10.26z" fill="#ac5743"/><path d="m214.291 217.003h-14.1l-32.12-88.23 12.45-4.53z" fill="#823931"/><path d="m440.831 29.263-86.45 28.18-26.36 159.56h-30.41l28.66-173.45c.91-5.52 4.82-10.08 10.15-11.81l95.12-31c7.87-2.57 16.34 1.74 18.91 9.61 2.57 7.88-1.74 16.34-9.62 18.91z" fill="#fde55f"/><path d="m269.081 68.478-128.912-37.453c-6.275-1.823-13.013.628-16.649 6.06l-74.678 111.553c-7.981 11.924 3.894 27.425 17.595 22.44l203.59-74.101c13.595-4.948 12.943-24.464-.946-28.499z" fill="#e85b8e"/><path d="m270.031 96.973-100.25 36.49c-13.04-35.84-25.79-70.84-37.35-102.6 2.49-.61 5.15-.59 7.74.16l128.91 37.45c13.89 4.04 14.54 23.56.95 28.5z" fill="#db1f79"/><path d="m419.873 219.387c-2.696-4.575-7.611-7.384-12.922-7.384-16.754 0-285.146 0-301.9 0-5.311 0-10.226 2.809-12.922 7.384-35.369 60.091-46.134 88.893-45.897 93.486 5.7 110.767 97.61 199.13 209.77 199.13s204.069-88.363 209.77-199.13c.235-4.593-10.529-33.395-45.899-93.486z" fill="#fbcdbe"/><path d="m465.771 312.873v.01c-.14 2.68-.33 5.34-.56 7.99-4.067 46.353-24.044 90.58-55.81 124.43-27.24 29.13-62.66 50.52-102.56 60.48-1.63.41-3.26.79-4.91 1.16-14.79 3.31-30.16 5.06-45.93 5.06v-300h150.95c5.31 0 10.23 2.81 12.92 7.38 35.37 60.09 46.14 88.9 45.9 93.49z" fill="#fdbbab"/><path d="m465.771 312.883c-5.71 110.76-97.62 199.12-209.77 199.12-112.16 0-204.07-88.36-209.77-199.13 45.194 15.723 95.559-2.025 121.16-42.9 41.062 64.461 135.838 64.853 177.31-.01 25.798 41.189 76.449 58.536 121.07 42.92z" fill="#22bfa2"/><path d="m465.771 312.883c-5.79 110.733-97.435 199.12-209.77 199.12v-193.54c33.98.01 67.99-16.1 88.7-48.5 25.8 41.19 76.45 58.54 121.07 42.92z" fill="#28a085"/></g></svg>